<?xml version="1.0" encoding="UTF-8"?>
<svg version="1.1" xmlns="http://www.w3.org/2000/svg" width="4718" height="2139">
<path d="M0 0 C3.06804905 0.01944643 6.13604098 0.02318504 9.20414352 0.02671432 C12.90284653 0.03185082 16.60149648 0.04631203 20.3001709 0.06115723 C21.33462467 0.06397831 21.33462467 0.06397831 22.3899765 0.06685638 C24.3323975 0.0737408 26.27478684 0.08827403 28.21716309 0.10314941 C29.31453796 0.10997742 30.41191284 0.11680542 31.5425415 0.12384033 C34.30312883 0.2547874 36.81593556 0.63943962 39.5032959 1.26428223 C39.5032959 1.92428223 39.5032959 2.58428223 39.5032959 3.26428223 C38.21032715 4.53381348 38.21032715 4.53381348 36.3157959 6.07678223 C28.10086606 13.06385779 20.32102988 20.84091446 13.3548584 29.07678223 C11.87156135 30.82920068 10.36576591 32.54998303 8.8392334 34.26428223 C-31.87040223 80.31827292 -58.06573415 140.88530646 -82.49084473 196.68762207 C-83.7906324 199.6568726 -85.09623059 202.62341993 -86.40881348 205.58703613 C-106.84984219 251.74928744 -125.07262746 298.86312049 -142.22717285 346.33459473 C-205.50275355 521.41270745 -205.50275355 521.41270745 -266.8717041 582.82678223 C-268.17494629 584.14839355 -268.17494629 584.14839355 -269.5045166 585.4967041 C-275.5198715 591.52540668 -281.83297337 596.96791948 -288.4967041 602.26428223 C-289.72810414 603.2771982 -290.95758621 604.29245542 -292.1842041 605.31115723 C-342.32775989 646.43571343 -408.02490589 675.16831061 -473.53186035 675.46740723 C-474.56033585 675.47442154 -475.58881134 675.48143585 -476.64845276 675.48866272 C-479.95208147 675.50608654 -483.25553112 675.51251549 -486.5592041 675.51428223 C-487.68574402 675.51495697 -488.81228394 675.51563171 -489.97296143 675.5163269 C-506.01945721 675.50102219 -521.67999347 675.22377993 -537.4967041 672.26428223 C-538.45931152 672.09267578 -539.42191895 671.92106934 -540.41369629 671.7442627 C-580.56198899 664.46291107 -617.93149833 650.06068847 -653.4967041 630.26428223 C-649.95807981 626.58778945 -646.23482622 623.37114876 -642.1842041 620.26428223 C-640.94248723 619.29920523 -639.70163702 618.33301237 -638.46154785 617.36584473 C-637.81556641 616.86214355 -637.16958496 616.35844238 -636.50402832 615.83947754 C-627.65595109 608.89617976 -618.92366533 601.82641195 -610.63342285 594.22131348 C-608.72040106 592.46916738 -606.77655127 590.76727457 -604.8092041 589.07678223 C-592.41447928 578.26276118 -580.04630542 566.93516655 -569.3638916 554.41271973 C-567.4689839 552.2323866 -565.51760548 550.11071745 -563.55212402 547.99401855 C-557.94186154 541.94519997 -552.62886815 535.72790393 -547.4967041 529.26428223 C-547.0036377 528.65439453 -546.51057129 528.04450684 -546.00256348 527.4161377 C-532.02042722 510.10753794 -519.50675186 491.60349251 -508.4967041 472.26428223 C-508.11385254 471.5933252 -507.73100098 470.92236816 -507.33654785 470.2310791 C-504.33128211 464.94045855 -501.398443 459.61228618 -498.4967041 454.26428223 C-498.06631836 453.47344238 -497.63593262 452.68260254 -497.19250488 451.86779785 C-489.30521762 437.30395263 -482.30718975 422.36188058 -475.42828369 407.30249023 C-472.35473222 400.5778504 -469.2686911 393.85891125 -466.1842041 387.13928223 C-465.64752609 385.97007736 -465.64752609 385.97007736 -465.1000061 384.7772522 C-445.52218754 342.1409797 -424.9165944 300.44578439 -401.50500488 259.75744629 C-399.58904143 256.42700931 -397.68125654 253.0919286 -395.77404785 249.75646973 C-382.90430043 227.29156668 -369.93369098 204.76861719 -355.4967041 183.26428223 C-354.99364746 182.51179199 -354.49059082 181.75930176 -353.97229004 180.98400879 C-344.11086399 166.27270107 -333.7666061 151.9352574 -322.4967041 138.26428223 C-321.69104004 137.28459473 -320.88537598 136.30490723 -320.05529785 135.29553223 C-307.93648651 120.69955597 -294.95388795 106.5703972 -280.4967041 94.26428223 C-279.58662598 93.46506348 -278.67654785 92.66584473 -277.7388916 91.84240723 C-203.23464328 26.89059948 -101.77108461 -0.67818709 0 0 Z " fill="#0A5647" transform="translate(1792.4967041015625,801.7357177734375)"/>
<path d="M0 0 C24.51666626 -0.37074447 48.65147251 -0.04421625 73 3 C73.99558929 3.12375 73.99558929 3.12375 75.0112915 3.25 C154.05593314 13.19302287 229.6457214 40.0733878 296.125 84.25 C296.96186844 84.80534927 296.96186844 84.80534927 297.81564331 85.37191772 C305.7546472 90.65621204 313.42839246 96.20436237 321 102 C321.6688623 102.51030762 322.33772461 103.02061523 323.02685547 103.54638672 C329.50390971 108.51895013 335.85097376 113.63747627 342.0625 118.9375 C342.81926025 119.58102417 342.81926025 119.58102417 343.59130859 120.23754883 C354.04040785 129.24432766 363.97225399 138.80470383 373.70458984 148.57421875 C375.39175958 150.26681347 377.08430196 151.95390597 378.77734375 153.640625 C384.39848831 159.25807481 389.87121264 164.92287083 395 171 C395.845625 171.96421875 396.69125 172.9284375 397.5625 173.921875 C405.87873395 183.57083875 413.45604869 193.74164607 421 204 C421.53705566 204.72590332 422.07411133 205.45180664 422.62744141 206.19970703 C424.05119056 208.12751929 425.46536634 210.06185174 426.875 212 C427.28564697 212.55679443 427.69629395 213.11358887 428.11938477 213.68725586 C431.70956057 218.68414982 431.70956057 218.68414982 432 222 C431.0671214 224.33408568 430.08671345 226.40661779 428.8984375 228.60546875 C428.55518433 229.26397827 428.21193115 229.92248779 427.85827637 230.60095215 C427.1063073 232.0399403 426.34874421 233.47601549 425.58636475 234.90951538 C424.35026346 237.23401733 423.12870833 239.5656586 421.91064453 241.8996582 C420.16900499 245.23502907 418.42218642 248.56760971 416.671875 251.8984375 C412.3513502 260.13316323 408.11300591 268.41009442 403.875 276.6875 C403.23256348 277.94096725 403.23256348 277.94096725 402.57714844 279.21975708 C395.09871221 293.815898 387.71645352 308.45953486 380.375 323.125 C379.63778717 324.59554337 379.63778717 324.59554337 378.88568115 326.09579468 C373.13088289 337.58133126 367.48386452 349.11121414 361.96026611 360.70974731 C357.76466527 369.51481105 353.48360632 378.27453081 349.125 387 C348.74358856 387.76382996 348.36217712 388.52765991 347.96920776 389.31463623 C341.39185953 402.45775016 334.49894376 415.35447615 327 428 C326.2877124 429.207771 326.2877124 429.207771 325.56103516 430.43994141 C311.64435185 453.94143452 295.52791766 476.06706435 278 497 C277.49227051 497.60682617 276.98454102 498.21365234 276.46142578 498.83886719 C269.68042948 506.91158556 262.64698653 514.71900136 255.45800781 522.42871094 C253.03592389 525.03898089 250.64237969 527.67502416 248.25 530.3125 C247.43015625 531.21613281 246.6103125 532.11976563 245.765625 533.05078125 C245.18296875 533.69402344 244.6003125 534.33726562 244 535 C234.60970395 529.62451746 226.74473216 521.96498995 218.85546875 514.6328125 C216.33696101 512.31068635 213.77692259 510.05461464 211.1875 507.8125 C207.79115971 504.80570411 204.79151471 501.6430612 201.8671875 498.1796875 C199.70739695 495.65842572 197.44889108 493.24296705 195.1875 490.8125 C176.06361865 469.75603939 161.39682459 444.96690379 150 419 C149.68820801 418.29166016 149.37641602 417.58332031 149.05517578 416.85351562 C144.5555556 406.35685665 141.80438337 395.49955004 139.25 384.3984375 C138.89951574 382.89102586 138.54871487 381.38368781 138.19761658 379.87641907 C135.39673488 367.82547677 132.66329832 355.75907321 129.93807983 343.69083691 C101.97409282 213.83114628 101.97409282 213.83114628 50 76 C49.30989506 74.64976572 48.62250803 73.2981397 47.9375 71.9453125 C39.67228327 55.76214136 29.80447872 40.59301049 19 26 C18.50967285 25.33307129 18.0193457 24.66614258 17.51416016 23.97900391 C9.72515203 13.34558949 9.72515203 13.34558949 1.109375 3.3828125 C0 2 0 2 0 0 Z " fill="#117763" transform="translate(891,802)"/>
<path d="M0 0 C7.09743944 -0.28010054 14.1934445 -0.47201341 21.29516602 -0.60424805 C23.70781704 -0.65939343 26.12010327 -0.73433498 28.53149414 -0.82983398 C49.68184457 -1.6461633 49.68184457 -1.6461633 54.40869141 2.21630859 C56.71342755 5.03169529 58.34857625 7.76651284 60 11 C61.09742955 12.42589273 62.23051565 13.82545358 63.40625 15.1875 C64.43764784 16.45821335 65.46889818 17.72904643 66.5 19 C70.15868526 23.5065845 73.82125088 28.0097621 77.5 32.5 C81.74954171 37.68694061 85.97655773 42.89199885 90.203125 48.09765625 C93.29479333 51.90445347 96.39204863 55.70647112 99.5 59.5 C103.74954171 64.68694061 107.97655773 69.89199885 112.203125 75.09765625 C115.29479333 78.90445347 118.39204863 82.70647112 121.5 86.5 C127.92765227 94.34689665 134.3135849 102.22777362 140.70703125 110.10253906 C146.6672561 117.4432068 152.63250438 124.77938034 158.625 132.09375 C162.16080435 136.42045795 165.68109065 140.75973779 169.203125 145.09765625 C172.29479333 148.90445347 175.39204863 152.70647112 178.5 156.5 C182.74954171 161.68694061 186.97655773 166.89199885 191.203125 172.09765625 C194.29479333 175.90445347 197.39204863 179.70647112 200.5 183.5 C204.74954171 188.68694061 208.97655773 193.89199885 213.203125 199.09765625 C216.29479333 202.90445347 219.39204863 206.70647112 222.5 210.5 C226.74954171 215.68694061 230.97655773 220.89199885 235.203125 226.09765625 C238.29479333 229.90445347 241.39204863 233.70647112 244.5 237.5 C248.74954171 242.68694061 252.97655773 247.89199885 257.203125 253.09765625 C260.29479333 256.90445347 263.39204863 260.70647112 266.5 264.5 C270.74954171 269.68694061 274.97655773 274.89199885 279.203125 280.09765625 C282.29479333 283.90445347 285.39204863 287.70647112 288.5 291.5 C294.92765227 299.34689665 301.3135849 307.22777362 307.70703125 315.10253906 C309.38785683 317.1726593 311.06885552 319.24263873 312.75 321.3125 C313.28971436 321.97701172 313.82942871 322.64152344 314.38549805 323.32617188 C318.27786021 328.11640481 322.18259883 332.89625769 326.09765625 337.66796875 C328.08110121 340.09941976 330.04127871 342.54861138 332 345 C332.04582252 307.40226614 332.08104208 269.8045365 332.10213066 232.20678034 C332.10463194 227.76350455 332.1072206 223.32022883 332.10986328 218.87695312 C332.1103879 217.99241288 332.11091252 217.10787264 332.11145304 216.19652815 C332.12014502 201.89232119 332.13590833 187.58813037 332.15430559 173.28393297 C332.17303826 158.59596519 332.18412383 143.90800585 332.18817699 129.22002661 C332.19091507 120.16382604 332.1995491 111.10767112 332.21583293 102.0514846 C332.2264414 95.83318181 332.22959192 89.61490247 332.22700275 83.39659129 C332.22572745 79.81415425 332.22762026 76.23179674 332.23841095 72.64937401 C332.25006214 68.75249789 332.24594611 64.85572334 332.24050903 60.95883179 C332.24633472 59.84399992 332.2521604 58.72916806 332.25816262 57.58055341 C332.19850949 41.6648037 330.45011448 25.90179553 319 14 C313.94844046 9.50254205 308.34126112 5.80107976 302.65234375 2.1640625 C301.83443359 1.58785156 301.83443359 1.58785156 301 1 C301 0.67 301 0.34 301 0 C326.74 0 352.48 0 379 0 C375.17463096 3.82536904 372.50788047 6.09492506 368.0625 8.8125 C362.75000747 12.28680493 359.23151402 15.56370719 356 21 C355.43732422 21.83337891 355.43732422 21.83337891 354.86328125 22.68359375 C348.24058437 33.737835 348.55548633 49.61866521 348.60127258 62.01502991 C348.59581554 63.54763337 348.58905678 65.08023265 348.58113068 66.61282533 C348.56330695 70.77024594 348.56363729 74.92748611 348.56726015 79.08493578 C348.56788915 83.58845683 348.55121615 88.09191997 348.53674316 92.59541321 C348.5140472 100.38011682 348.50208768 108.16477596 348.49761391 115.94951057 C348.49112992 127.2046412 348.46815322 138.45969172 348.44127061 149.71478992 C348.39808812 167.97952638 348.36807272 186.24425944 348.34643555 204.5090332 C348.3254002 222.24179753 348.29810286 239.97453417 348.26245117 257.70727539 C348.26025235 258.80202346 348.25805352 259.89677154 348.25578807 261.02469379 C348.24471778 266.51723144 348.23352509 272.00976883 348.22227156 277.5023061 C348.12920745 323.00151296 348.05755353 368.50073529 348 414 C346.25113579 414.09837361 344.50066345 414.1684171 342.75 414.2265625 C341.77546875 414.26861816 340.8009375 414.31067383 339.796875 414.35400391 C336.36714632 413.91989893 335.28125331 412.90712474 333 410.375 C331.63790099 408.60510353 330.30760467 406.81052955 329 405 C327.70623135 403.33065416 326.3960421 401.67500998 325.08520508 400.01904297 C324.1469439 398.83150751 323.21323591 397.64036152 322.28393555 396.44580078 C318.61509776 391.73062033 314.79872711 387.16098118 310.91918945 382.61865234 C307.50978449 378.62133455 304.20621866 374.55314231 300.94140625 370.4375 C298.17371197 366.96256794 295.35191616 363.53284715 292.53515625 360.09765625 C289.59651368 356.51093909 286.67312804 352.91186437 283.75 349.3125 C283.19868408 348.63364746 282.64736816 347.95479492 282.0793457 347.25537109 C280.9493339 345.86380819 279.81937005 344.47220634 278.68945312 343.08056641 C275.9604131 339.71974572 273.23017536 336.3598984 270.5 333 C267.20249585 328.94191675 263.90530237 324.8835828 260.609375 320.82421875 C255.91456241 315.04264398 251.21944093 309.26150727 246.5 303.5 C241.21049332 297.0425548 235.95097339 290.56081424 230.68945312 284.08056641 C227.9604131 280.71974572 225.23017536 277.3598984 222.5 274 C219.20249585 269.94191675 215.90530237 265.8835828 212.609375 261.82421875 C207.91456241 256.04264398 203.21944093 250.26150727 198.5 244.5 C193.21049332 238.0425548 187.95097339 231.56081424 182.68945312 225.08056641 C179.9604131 221.71974572 177.23017536 218.3598984 174.5 215 C171.20249585 210.94191675 167.90530237 206.8835828 164.609375 202.82421875 C159.91456241 197.04264398 155.21944093 191.26150727 150.5 185.5 C145.21049332 179.0425548 139.95097339 172.56081424 134.68945312 166.08056641 C131.9604131 162.71974572 129.23017536 159.3598984 126.5 156 C123.20249585 151.94191675 119.90530237 147.8835828 116.609375 143.82421875 C111.91456241 138.04264398 107.21944093 132.26150727 102.5 126.5 C97.21049332 120.0425548 91.95097339 113.56081424 86.68945312 107.08056641 C83.9604131 103.71974572 81.23017536 100.3598984 78.5 97 C75.20249585 92.94191675 71.90530237 88.8835828 68.609375 84.82421875 C67.48958729 83.44530929 66.36979567 82.066403 65.25 80.6875 C64.71141357 80.02403564 64.17282715 79.36057129 63.61791992 78.67700195 C61.17061054 75.66397531 58.71954972 72.65429949 56.25390625 69.65625 C55.44824219 68.6765625 54.64257812 67.696875 53.8125 66.6875 C53.11769531 65.84574219 52.42289063 65.00398437 51.70703125 64.13671875 C50 62 50 62 48 59 C47.9312519 98.21980604 47.87842965 137.4396042 47.84680401 176.65945852 C47.84305214 181.29543338 47.83916915 185.93140813 47.83520508 190.56738281 C47.83402468 191.95172323 47.83402468 191.95172323 47.83282044 193.36403012 C47.81978585 208.28444917 47.79614278 223.20483334 47.76854161 238.12523174 C47.74043315 253.44827498 47.72381226 268.77130002 47.71773452 284.09436798 C47.71362934 293.54059603 47.70068905 302.98672551 47.6762506 312.4329232 C47.66032616 318.9208307 47.65561474 325.40868764 47.65949587 331.89661324 C47.66140704 335.63325457 47.65859071 339.3697243 47.64238358 343.10633469 C46.67462447 374.35399406 46.67462447 374.35399406 61 401 C63.46089984 402.9386858 66.0446414 404.63347732 68.6875 406.3125 C69.36361328 406.75400391 70.03972656 407.19550781 70.73632812 407.65039062 C74.2877194 409.96307628 74.2877194 409.96307628 78 412 C78 412.66 78 413.32 78 414 C51.93 414 25.86 414 -1 414 C2.29900802 410.70099198 4.86673726 408.71187348 8.75 406.3125 C19.26269629 399.35952304 25.87138285 391.03761542 28.52675408 378.51606113 C29.93320207 370.72949043 30.28518487 363.22065596 30.26069641 355.31962585 C30.26372416 353.97939731 30.26761674 352.6391705 30.27228898 351.29894668 C30.28249755 347.64947626 30.28040557 344.00010486 30.27610838 340.35062659 C30.27362806 336.40162788 30.28267146 332.45265222 30.29014587 328.50366211 C30.30285889 320.77990204 30.30469081 313.0561768 30.30234561 305.33240803 C30.30055844 299.050401 30.30232063 292.76840448 30.30657005 286.4863987 C30.30716524 285.59036302 30.30776043 284.69432734 30.30837366 283.77113906 C30.30958548 281.95049844 30.31079961 280.12985781 30.31201603 278.30921719 C30.32287854 261.25644029 30.32073522 244.20368318 30.31463119 227.15090517 C30.30946348 211.57421455 30.32071592 195.99758649 30.33972941 180.42090824 C30.35913386 164.40026419 30.36735922 148.3796497 30.36360615 132.35899383 C30.36169803 123.37525581 30.36414368 114.39157103 30.37832069 105.40784264 C30.39026876 97.75959356 30.39160114 90.11143048 30.37953053 82.46318015 C30.37366573 78.56659484 30.37247535 74.67016659 30.38453293 70.773592 C30.39547314 67.1963185 30.39219324 63.61933163 30.37827124 60.04207108 C30.37441717 58.15688705 30.38510454 56.27168989 30.39656812 54.38653678 C30.31955367 42.04795976 28.72596108 29.60557341 22 19 C21.62746094 18.401875 21.25492188 17.80375 20.87109375 17.1875 C17.03571181 11.99350315 11.49543491 8.78510062 6.11767578 5.375 C1.09136683 2.18273366 1.09136683 2.18273366 0 0 Z " fill="#0A5647" transform="translate(3067,829)"/>
<path d="M0 0 C4.70337941 4.16907551 9.21429173 8.51173527 13.44140625 13.1640625 C13.95283173 13.68911377 14.4642572 14.21416504 14.99118042 14.75512695 C20.24094774 20.75254135 20.23734177 26.0279731 20.02734375 33.7578125 C20.01885406 34.94507935 20.01036438 36.13234619 20.00161743 37.35559082 C19.96818674 41.12602705 19.89291832 44.89427901 19.81640625 48.6640625 C19.78629368 51.22913566 19.75892016 53.79424253 19.734375 56.359375 C19.66842888 62.6283421 19.56818093 68.89604621 19.44140625 75.1640625 C16.47140625 75.4940625 13.50140625 75.8240625 10.44140625 76.1640625 C9.99039551 75.3433728 9.99039551 75.3433728 9.53027344 74.50610352 C-11.89254507 35.7369552 -40.54420993 0.34619153 -83.55859375 -14.8359375 C-84.24002441 -15.07683105 -84.92145508 -15.31772461 -85.62353516 -15.56591797 C-119.96880979 -27.36366308 -160.96913036 -26.56684339 -194.03808594 -10.96557617 C-215.3886795 -0.34961526 -231.96831455 14.15332642 -240.58984375 36.8828125 C-245.18473614 52.02893926 -243.91428517 69.91717306 -236.80859375 83.9765625 C-225.48275152 103.19200841 -201.98104391 110.86295427 -181.55859375 116.1640625 C-163.90695318 120.30576754 -145.96636238 122.85275679 -128.03482056 125.41464233 C-20.36465727 140.82392032 -20.36465727 140.82392032 13.44140625 171.1640625 C14.19679688 171.82535156 14.9521875 172.48664063 15.73046875 173.16796875 C36.62935131 192.6268223 46.40189732 221.09848422 47.5625 249.08398438 C48.62458067 283.77153918 41.1090785 313.85122347 17.18359375 339.734375 C-8.740506 366.98038352 -45.44237662 381.75768739 -82.55859375 385.1640625 C-83.56792969 385.27363281 -84.57726563 385.38320312 -85.6171875 385.49609375 C-130.77558756 389.81059057 -178.50029014 381.6035669 -218.55859375 360.1640625 C-219.61949219 359.59816406 -220.68039062 359.03226563 -221.7734375 358.44921875 C-234.14908332 351.53772141 -245.11632324 342.72660239 -254.55859375 332.1640625 C-255.06662033 331.70218536 -255.57464691 331.24030823 -256.09806824 330.76443481 C-262.58269802 323.95182475 -261.31072806 315.0778206 -261.14453125 306.3203125 C-261.13332695 304.58298209 -261.1247926 302.84563259 -261.11880493 301.10827637 C-261.09600331 296.55727901 -261.03715676 292.00744858 -260.97058105 287.45690918 C-260.90897001 282.80476666 -260.88174993 278.15243376 -260.8515625 273.5 C-260.78740352 264.38751088 -260.68513089 255.2758841 -260.55859375 246.1640625 C-257.25859375 245.8340625 -253.95859375 245.5040625 -250.55859375 245.1640625 C-250.27886719 246.38738281 -249.99914063 247.61070312 -249.7109375 248.87109375 C-242.70292665 278.67229444 -230.86625588 303.08661489 -209.55859375 325.1640625 C-208.7696875 326.01613281 -207.98078125 326.86820313 -207.16796875 327.74609375 C-189.68401781 346.12739979 -166.9574505 357.39289487 -142.87109375 364.4140625 C-141.60712769 364.78374146 -141.60712769 364.78374146 -140.31762695 365.16088867 C-128.07038451 368.5924889 -116.21414361 369.53841013 -103.55859375 369.4765625 C-102.3994043 369.47382828 -102.3994043 369.47382828 -101.21679688 369.47103882 C-89.10863262 369.422998 -77.41144816 368.81834949 -65.55859375 366.1640625 C-64.78241699 365.99777344 -64.00624023 365.83148437 -63.20654297 365.66015625 C-41.4276692 360.87845597 -20.50091515 351.83054968 -3.55859375 337.1640625 C-2.75035156 336.51179688 -1.94210937 335.85953125 -1.109375 335.1875 C10.80867017 325.19654848 18.67968298 312.44997911 24.44140625 298.1640625 C24.83972656 297.19339844 25.23804687 296.22273438 25.6484375 295.22265625 C33.40584584 274.33285627 34.3837615 248.41585772 26.12890625 227.5390625 C23.71833643 222.38073007 20.89842258 217.68541083 17.44140625 213.1640625 C16.61576172 212.07351563 16.61576172 212.07351563 15.7734375 210.9609375 C-12.54405198 176.42446845 -66.8392248 173.56011028 -107.56770325 167.5112915 C-218.55967611 150.98116 -218.55967611 150.98116 -246.75390625 114.30859375 C-261.14600014 92.72045292 -263.50855916 65.17170027 -258.55859375 40.1640625 C-255.04310067 25.28132425 -248.55352842 12.78703808 -238.55859375 1.1640625 C-238.06746094 0.54015625 -237.57632812 -0.08375 -237.0703125 -0.7265625 C-217.00019022 -25.82834923 -180.36842406 -35.49793493 -149.91845703 -39.15283203 C-98.69512353 -44.33167874 -40.48315474 -33.4803026 0 0 Z " fill="#0A5647" transform="translate(2260.55859375,862.8359375)"/>
<path d="M0 0 C1.24829102 2.125 1.24829102 2.125 2.50390625 5 C2.98770752 6.09320557 3.47150879 7.18641113 3.9699707 8.31274414 C4.50096044 9.54176608 5.0317981 10.77085374 5.5625 12 C6.12948172 13.29136089 6.69746207 14.58228373 7.26635742 15.87280273 C8.51378898 18.70796747 9.75442043 21.54598276 10.99023438 24.38623047 C13.08115571 29.19084879 15.18796667 33.98841097 17.296875 38.78515625 C19.57791506 43.97490028 21.85806847 49.1650215 24.13305664 54.35742188 C29.05394435 65.58725091 34.01028562 76.80059675 39 88 C44.62546017 100.62754298 50.20229062 113.27561249 55.75 125.9375 C62.12127464 140.47870488 68.54253618 154.99687015 75 169.5 C81.83723507 184.85607642 88.62819107 200.2314904 95.37402344 215.62792969 C100.54755647 227.43442909 105.75463535 239.22524238 111 251 C116.2460707 262.77634257 121.4536189 274.56882812 126.62762451 286.37701416 C128.89112051 291.54074903 131.15919307 296.70247558 133.42727661 301.86419678 C135.47189739 306.51796476 137.51389999 311.17285601 139.55175781 315.82958984 C155.28623918 354.91698408 155.28623918 354.91698408 178 390 C178.63627319 390.81355957 178.63627319 390.81355957 179.28540039 391.64355469 C183.17180943 396.47849976 187.55388479 399.81282536 192.6875 403.25 C194.19319632 404.27341296 195.69717242 405.29936247 197.19921875 406.328125 C197.85752686 406.7705957 198.51583496 407.21306641 199.1940918 407.66894531 C201 409 201 409 204 412 C171.99 412 139.98 412 107 412 C112 407 112 407 115.125 404.75 C119.71150474 400.36290851 120.90319348 396.19864864 121.09375 389.90234375 C120.49934808 376.95924196 117.30225812 364.71728073 112.44140625 352.765625 C111.92066528 351.47557053 111.92066528 351.47557053 111.3894043 350.15945435 C107.35901521 340.2783598 102.94196806 330.57611581 98.5 320.875 C97.27973685 318.19922457 96.0608035 315.52284789 94.84240723 312.84622192 C94.09564898 311.20682358 93.3476917 309.56797036 92.59802246 307.92990112 C88.66347445 299.31582909 84.84700932 290.65577097 81 282 C17.64 282 -45.72 282 -111 282 C-135.35578872 329.50574175 -135.35578872 329.50574175 -147.4375 384.125 C-147.44458984 384.81335937 -147.45167969 385.50171875 -147.45898438 386.2109375 C-147.38747132 391.97598979 -145.91358201 395.94920378 -141.984375 400.16015625 C-141.24703125 400.78792969 -140.5096875 401.41570312 -139.75 402.0625 C-138.96238281 402.73539063 -138.17476562 403.40828125 -137.36328125 404.1015625 C-134.32937089 406.53872024 -131.1840774 408.76437119 -128 411 C-128 411.33 -128 411.66 -128 412 C-153.08 412 -178.16 412 -204 412 C-200.97426193 408.21782741 -198.82062889 405.85518992 -195.125 403 C-164.6841978 379.33442336 -152.83075882 338.82999999 -138.49493408 304.37095642 C-134.54705309 294.8924159 -130.52796393 285.44471888 -126.5 276 C-120.61319608 262.18877072 -114.78589524 248.35379734 -109 234.5 C-102.86927504 219.82053942 -96.68426266 205.16557599 -90.44775391 190.53076172 C-84.91399535 177.54169377 -79.4410715 164.52814841 -74 151.5 C-67.86927504 136.82053942 -61.68426266 122.16557599 -55.44775391 107.53076172 C-49.91399517 94.54169336 -44.44111105 81.52813229 -39 68.5 C-30.6849121 48.590909 -22.3627664 28.67951735 -13.790802 8.87927246 C-13.2496736 7.59332769 -12.73622681 6.29547874 -12.24703979 4.9888916 C-11.50756836 3.06738281 -11.50756836 3.06738281 -10 0 C-6.06742675 -1.12359236 -3.88155977 -1.29385326 0 0 Z M-18 60 C-26.56959009 79.89955565 -35.13381454 99.80020968 -43.4375 119.8125 C-48.99600979 133.20698677 -54.60437172 146.57948278 -60.25 159.9375 C-60.64754486 160.87831421 -61.04508972 161.81912842 -61.4546814 162.78845215 C-64.71127471 170.49490312 -67.97008199 178.20041734 -71.22900391 185.90588379 C-84.00317058 216.10804738 -84.00317058 216.10804738 -96.68493652 246.34909058 C-97.34868584 247.93861785 -98.01298474 249.52791575 -98.67785645 251.11697388 C-99.58266083 253.28034141 -100.48509995 255.44467826 -101.38671875 257.609375 C-101.89420654 258.82592773 -102.40169434 260.04248047 -102.92456055 261.29589844 C-104.06159216 263.66985009 -104.06159216 263.66985009 -104 265 C-45.26 265 13.48 265 74 265 C72.01343863 259.0403159 70.00540147 253.47366778 67.40234375 247.8125 C67.05627579 247.04949585 66.71020782 246.2864917 66.35365295 245.50036621 C65.60812 243.8572426 64.86070543 242.21497165 64.11157227 240.57348633 C62.07328488 236.1056994 60.05046928 231.63091837 58.02734375 227.15625 C57.60899261 226.23154907 57.19064148 225.30684814 56.75961304 224.35412598 C52.43051464 214.76919558 48.21039197 205.13751302 44 195.5 C38.08178491 181.96233878 32.08342259 168.46421923 26 155 C17.96605828 137.21541192 10.10053726 119.36008162 2.277771 101.48176575 C-1.67152761 92.45894105 -5.64683609 83.4476269 -9.625 74.4375 C-10.2775886 72.95914745 -10.93017651 71.48079459 -11.58276367 70.00244141 C-13.05477604 66.66811766 -14.52723232 63.3339902 -16 60 C-16.66 60 -17.32 60 -18 60 Z " fill="#0A5647" transform="translate(3651,831)"/>
<path d="M0 0 C33.66 0 67.32 0 102 0 C98.69305135 3.30694865 96.07968001 5.33175209 92.1875 7.75 C80.6263221 15.35418522 75.68706488 24.00885987 72.61328125 37.265625 C70.64593436 49.24513853 70.85118758 61.31395873 70.85473633 73.4140625 C70.85173946 75.46217408 70.84833572 77.5102851 70.84455872 79.55839539 C70.83576638 85.09397813 70.83338256 90.62954538 70.83274293 96.16513443 C70.83202951 99.63347787 70.82988963 103.10181744 70.82724571 106.57015991 C70.81800674 118.69863126 70.81390885 130.82709166 70.81469727 142.95556641 C70.81529706 154.21393685 70.8047607 165.47225923 70.7889536 176.73061752 C70.77582145 186.43385414 70.77051577 196.13707516 70.77115268 205.84032059 C70.77140608 211.61884504 70.76864307 217.39732678 70.75797462 223.17584229 C70.74819807 228.61947551 70.74827901 234.063026 70.75549126 239.50666237 C70.75652547 241.48816869 70.75424478 243.46968043 70.7481308 245.4511776 C70.61885794 290.30547341 80.73966458 329.08056603 112.17578125 362.265625 C138.43789838 387.69229442 173.94822747 398.60817889 209.89453125 398.21484375 C242.60118042 397.38545794 274.05226804 384.33979572 297 361 C297.80953125 360.18917969 298.6190625 359.37835937 299.453125 358.54296875 C325.94849939 330.61165624 331.51620094 294.77795286 331.37231445 257.64306641 C331.37475032 255.39979891 331.37847728 253.15653251 331.38337708 250.91326904 C331.39267769 244.89296884 331.38345474 238.87283429 331.37004495 232.85254717 C331.35861782 226.51533558 331.36284636 220.17813082 331.36479187 213.84091187 C331.36567093 203.21145613 331.35474543 192.58207101 331.33618164 181.95263672 C331.31715809 171.05678369 331.31010349 160.16100517 331.31567383 149.26513672 C331.32240268 136.06449383 331.31905611 122.86389175 331.30657005 109.66324997 C331.30195101 104.64692957 331.30103841 99.63062934 331.3031559 94.6143074 C331.30505169 88.70269985 331.29683648 82.79118658 331.2810955 76.87960052 C331.27688594 74.72225459 331.2759794 72.56489903 331.27878571 70.40755081 C331.75696317 39.40434026 331.75696317 39.40434026 317.22265625 13.203125 C312.60108729 8.93124531 307.4973723 5.63835332 302.125 2.3828125 C301.42375 1.92648437 300.7225 1.47015625 300 1 C300 0.67 300 0.34 300 0 C326.07 0 352.14 0 379 0 C375.77805142 3.22194858 373.48814562 5.06006646 369.6875 7.3125 C359.63942709 13.64599276 353.64523431 21.04588188 350.21875 32.64453125 C348.29454714 41.62886076 347.85073281 50.8221545 347.86196899 59.98274231 C347.85914771 60.93610448 347.85632643 61.88946665 347.85341966 62.87171859 C347.84514348 66.03924337 347.84374142 69.2067329 347.84228516 72.37426758 C347.83761161 74.6569122 347.83246715 76.9395559 347.82688904 79.22219849 C347.81564183 84.12695541 347.80719125 89.03170637 347.80076981 93.93647194 C347.79004236 101.7100052 347.76978332 109.48349567 347.74765015 117.25700378 C347.74019562 119.92472928 347.73275769 122.59245481 347.72536278 125.26018047 C347.72258693 126.26009652 347.72258693 126.26009652 347.719755 127.28021288 C347.69886239 134.85469189 347.68002023 142.4291755 347.66210938 150.00366211 C347.66047119 150.69529305 347.65883301 151.38692398 347.65714519 152.09951343 C347.63091845 163.2814744 347.61223998 174.46343863 347.59551747 185.64541725 C347.57801204 197.166352 347.54889128 208.68721527 347.5106281 220.2081005 C347.4896702 226.66017832 347.47411686 233.11216592 347.47182083 239.56427956 C347.46965468 245.64404585 347.45358724 251.72362438 347.42743111 257.80333328 C347.42031073 260.01822686 347.41810123 262.23314337 347.42153358 264.44804573 C347.48017853 309.53778428 334.32410646 346.58703261 302.421875 378.5859375 C271.32907802 408.09616697 227.46735814 421.18462978 185.1796875 420.25 C142.64475483 418.58130904 103.99622365 404.5417083 73 375 C72.46665039 374.49218994 71.93330078 373.98437988 71.38378906 373.46118164 C67.00512153 369.20051303 63.18342233 364.68184532 59.5 359.8125 C58.93466553 359.06564941 58.36933105 358.31879883 57.78686523 357.54931641 C36.69387581 329.31001853 31.52036129 296.66769108 31.59936523 262.20581055 C31.59360615 259.90357612 31.58651668 257.60134471 31.57821655 255.29911804 C31.5632346 250.3868753 31.55731774 245.47474031 31.55874443 240.5624752 C31.56079729 232.78099533 31.5410854 224.99965803 31.51856995 217.21821594 C31.48910465 206.30034722 31.46842897 195.38250126 31.45629883 184.46459961 C31.45552934 183.77488702 31.45475985 183.08517443 31.45396704 182.37456147 C31.45086488 179.58014209 31.44778207 176.7857227 31.444727 173.99130328 C31.43618547 166.28871427 31.4252833 158.58612933 31.41333008 150.88354492 C31.41226206 150.19317761 31.41119404 149.5028103 31.41009366 148.79152276 C31.3919431 137.24203519 31.36587837 125.69257734 31.33519894 114.1431163 C31.31538575 106.42106252 31.30570468 98.69908451 31.30424678 90.97700632 C31.30148097 86.16341877 31.29061795 81.34987263 31.27773666 76.53630257 C31.27348695 74.31929283 31.2725765 72.10227354 31.27541161 69.88526154 C31.78390858 39.14588666 31.78390858 39.14588666 17.22265625 13.19921875 C12.59706828 8.93308343 7.49690989 5.63807311 2.125 2.3828125 C1.42375 1.92648437 0.7225 1.47015625 0 1 C0 0.67 0 0.34 0 0 Z " fill="#0A5647" transform="translate(2336,829)"/>
<path d="M0 0 C0.33 0 0.66 0 1 0 C1.06993164 0.71841064 1.13986328 1.43682129 1.21191406 2.17700195 C5.7791874 48.21320807 19.14551093 85.69954123 51 120 C51.5775 120.64324219 52.155 121.28648437 52.75 121.94921875 C83.59843237 154.79453625 128.41394639 168.24684319 172 171 C172 171.33 172 171.66 172 172 C170.89265503 172.09704224 170.89265503 172.09704224 169.76293945 172.19604492 C128.13929042 175.95478852 90.55661968 187.74533125 59 216 C58.14019531 216.72703125 57.28039063 217.4540625 56.39453125 218.203125 C19.76333194 249.65121344 4.84403046 296.36584094 1 343 C0.67 343 0.34 343 0 343 C-0.03440186 342.36312256 -0.06880371 341.72624512 -0.10424805 341.07006836 C-1.78918119 311.85672372 -8.06051357 285.78025059 -22 260 C-22.56460937 258.94296875 -23.12921875 257.8859375 -23.7109375 256.796875 C-30.26302787 245.04617772 -38.77683185 234.75323528 -48 225 C-48.85722656 224.06671875 -49.71445313 223.1334375 -50.59765625 222.171875 C-62.94272608 209.03762263 -78.05413782 199.22427414 -94 191 C-95.74410156 190.07960938 -95.74410156 190.07960938 -97.5234375 189.140625 C-120.6988795 177.57848396 -145.49993994 173.98179621 -171 172 C-171 171.67 -171 171.34 -171 171 C-170.06655762 170.94054199 -170.06655762 170.94054199 -169.11425781 170.87988281 C-120.04026577 167.62028921 -75.60619711 150.12683718 -42.33007812 112.93432617 C-14.88859158 81.34747993 -1.129952 41.58223354 0 0 Z " fill="#159B81" transform="translate(1359,607)"/>
<path d="M0 0 C93.06 0 186.12 0 282 0 C284.31117914 13.86707482 284.31117914 13.86707482 285.0703125 20.6953125 C285.15626678 21.45367401 285.24222107 22.21203552 285.33078003 22.99337769 C285.50881273 24.57433658 285.68517185 26.15548483 285.85986328 27.73681641 C286.12541103 30.12870227 286.40035637 32.51939003 286.67578125 34.91015625 C287.54830318 42.64723991 288.23542823 50.19947786 288 58 C284.37874805 54.96997286 280.87118461 51.93217419 277.5625 48.5625 C261.14688096 32.00128789 241.62161756 22.94844897 218.875 18.75 C217.99360352 18.58685303 217.11220703 18.42370605 216.20410156 18.25561523 C204.98288765 16.31268665 193.72632089 15.85001315 182.35668945 15.85473633 C181.16806808 15.85137772 179.97944672 15.8480191 178.75480652 15.84455872 C174.87428714 15.83515299 170.99381127 15.83311187 167.11328125 15.83203125 C165.76827666 15.8306054 164.42327224 15.82900895 163.07826805 15.82724571 C156.05388336 15.8180447 149.02951747 15.81390551 142.00512695 15.81469727 C135.46391268 15.81530146 128.92277996 15.80466976 122.38158637 15.7889536 C116.7482147 15.77590183 111.11486985 15.77051214 105.48148316 15.77115268 C102.12363077 15.77140772 98.76585156 15.76855113 95.4080143 15.75797462 C91.67859564 15.74823892 87.94939241 15.75102564 84.2199707 15.75708008 C83.10679474 15.75146057 81.99361877 15.74584106 80.84671021 15.74005127 C79.83622116 15.74424576 78.82573212 15.74844025 77.78462219 15.75276184 C76.90368047 15.75221707 76.02273874 15.75167231 75.11510181 15.75111103 C72.78281267 15.80410418 72.78281267 15.80410418 71 18 C70.80039186 20.51617402 70.72630714 22.92265246 70.73930359 25.44018555 C70.73547804 26.21635821 70.73165249 26.99253088 70.72771102 27.79222393 C70.71734758 30.40712336 70.72137943 33.02180458 70.7253418 35.63671875 C70.7209972 37.50566818 70.7158149 39.37461582 70.70985413 41.24356079 C70.69642657 46.33021124 70.69588956 51.41678757 70.69841743 56.5034523 C70.69948447 60.74334027 70.69461069 64.98321307 70.689812 69.2230978 C70.67870409 79.22133447 70.6782868 89.21953358 70.68432617 99.21777344 C70.69036999 109.54815357 70.67804752 119.87839763 70.6567561 130.20875454 C70.63917135 139.06481263 70.63313374 147.92082728 70.63639385 156.7769022 C70.63821165 162.07212076 70.63552112 167.36724224 70.62167931 172.66244507 C70.60915609 177.63973459 70.61099251 182.6168111 70.62409019 187.59409714 C70.6264675 189.42512456 70.62368036 191.25616673 70.61546707 193.08717728 C70.60509488 195.57830789 70.61302246 198.06871102 70.6257782 200.55981445 C70.61471677 201.65794983 70.61471677 201.65794983 70.60343188 202.77826977 C70.59215845 204.99702339 70.59215845 204.99702339 71 208 C74.82431313 210.54954209 77.92030882 210.28105581 82.35180664 210.25878906 C83.63047104 210.26404602 83.63047104 210.26404602 84.93496704 210.26940918 C87.76011243 210.2782279 90.58500818 210.27237319 93.41015625 210.265625 C95.37731474 210.26697248 97.3444729 210.26891371 99.31163025 210.27142334 C103.44175374 210.27437551 107.57179084 210.27007718 111.7019043 210.26074219 C116.97522219 210.24939998 122.24833532 210.2558732 127.52164555 210.26788712 C131.5890606 210.27514802 135.65642795 210.27279753 139.72384453 210.26763153 C141.6665493 210.26630398 143.6092585 210.26791115 145.55195808 210.27259064 C166.86019729 210.70961534 166.86019729 210.70961534 185.1484375 200.96484375 C187.39954324 198.43349832 189.48107792 196.03784416 191 193 C192.47906892 192.97310784 193.95827483 192.95365379 195.4375 192.9375 C196.26121094 192.92589844 197.08492187 192.91429687 197.93359375 192.90234375 C200 193 200 193 201 194 C201.09319449 195.5348297 201.117458 197.07392082 201.11352539 198.61157227 C201.11344986 199.59251358 201.11337433 200.5734549 201.11329651 201.5841217 C201.10813522 202.6507756 201.10297394 203.7174295 201.09765625 204.81640625 C201.09553383 206.44569313 201.09553383 206.44569313 201.09336853 208.1078949 C201.08775048 211.59279075 201.07519492 215.07762342 201.0625 218.5625 C201.05748733 220.91861887 201.05292402 223.27473874 201.04882812 225.63085938 C201.03777519 231.42059464 201.02101951 237.21029281 201 243 C197.77349018 244.61325491 194.47799085 244.72632741 191 244 C189 241.4375 189 241.4375 187 238 C180.14686469 230.53244567 172.05885345 227.35825353 161.96966934 226.90974236 C159.57312475 226.87738675 157.17848309 226.87631366 154.78173828 226.88647461 C153.87378006 226.88632858 152.96582184 226.88618256 152.03034973 226.8860321 C149.04364594 226.88672609 146.05700533 226.89449437 143.0703125 226.90234375 C140.99380528 226.90420976 138.91729761 226.9056328 136.84078979 226.90663147 C131.38609595 226.91044226 125.9314289 226.92026025 120.47674561 226.93133545 C114.90637576 226.94158051 109.33600156 226.94613572 103.765625 226.95117188 C92.84373825 226.96188383 81.92187136 226.97894296 71 227 C70.9296361 244.96010693 70.87687862 262.92017763 70.84456348 280.88039303 C70.82915414 289.22133454 70.80817946 297.56218996 70.77368164 305.90307617 C70.74359614 313.18067872 70.724382 320.45821885 70.71773452 327.73588187 C70.71385436 331.58238656 70.7048625 335.42871285 70.68280983 339.27515984 C69.5184933 371.91754871 69.5184933 371.91754871 83.5625 400.25 C88.01468861 404.39843305 93.17698218 407.3350512 98.4375 410.3359375 C99.7059375 411.15964844 99.7059375 411.15964844 101 412 C101 412.66 101 413.32 101 414 C67.67 414 34.34 414 0 414 C3.84431964 410.15568036 6.34568507 408.0328427 10.8125 405.375 C21.48136097 398.35428583 26.21404418 389.26135359 29 377 C29.75571975 373.00762753 30.1262961 369.2396875 30.13142776 365.17832184 C30.13526891 364.03245558 30.13911005 362.88658933 30.1430676 361.70599985 C30.14220112 360.45679554 30.14133463 359.20759122 30.14044189 357.92053223 C30.1430275 356.57239621 30.14604121 355.22426096 30.1494453 353.87612677 C30.15749581 350.17699138 30.15930378 346.47787541 30.16004276 342.7787323 C30.16189676 338.78670738 30.16944593 334.79469246 30.17617798 330.80267334 C30.18974888 322.07509562 30.19578433 313.3475225 30.20018864 304.61993599 C30.20295366 299.16668221 30.20719154 293.7134302 30.21169281 288.26017761 C30.2238848 273.15175742 30.23418364 258.04333864 30.2375679 242.93491364 C30.23778747 241.96826974 30.23800703 241.00162584 30.23823325 240.00568971 C30.23845153 239.0367718 30.23866981 238.06785389 30.2388947 237.06957483 C30.23933816 235.10627905 30.23978473 233.14298328 30.24023438 231.1796875 C30.2404558 230.20583121 30.24067723 229.23197492 30.24090537 228.22860783 C30.24485065 212.46010126 30.26229672 196.69164097 30.2855939 180.92315227 C30.30933815 164.72077508 30.32177118 148.51842108 30.32293582 132.31602621 C30.32385095 123.2243558 30.3295623 114.13274567 30.34775543 105.04109192 C30.36319808 97.29678866 30.36825247 89.55256432 30.36001733 81.80824858 C30.35612527 77.86119364 30.35696923 73.91429742 30.37107468 69.96726227 C30.38390112 66.34478245 30.38254045 62.72257918 30.37048396 59.10009927 C30.36763099 57.18803744 30.37939624 55.27597043 30.39190602 53.36394739 C30.30844919 38.58796259 27.53716526 24.20489565 17.30859375 13.01953125 C13.20904854 9.43329627 8.56497945 6.69257037 3.9140625 3.8828125 C1 2 1 2 0 0 Z " fill="#0A5647" transform="translate(2745,829)"/>
<path d="M0 0 C21 0 21 0 27.625 6.125 C29.25219727 8.19750977 29.25219727 8.19750977 30.37890625 10.00390625 C32.89641718 13.88111723 35.67110725 17.45969251 38.5625 21.0625 C39.47108773 22.22966328 40.37864485 23.39762959 41.28515625 24.56640625 C43.93782412 27.95268915 46.70185213 31.23359268 49.5 34.5 C53.28193622 38.91572777 56.93267348 43.40918222 60.5 48 C64.56916079 53.23582295 68.77056415 58.33210878 73.07495117 63.37573242 C79.33663363 70.7207119 85.207679 78.27690534 91 86 C91.33 57.62 91.66 29.24 92 0 C100.58 0 109.16 0 118 0 C118 43.89 118 87.78 118 133 C96 133 96 133 91.4375 129 C90.27872416 127.00747081 89.13473911 125.00631532 88 123 C85.94178166 120.28107508 83.74932534 117.6784231 81.5625 115.0625 C80.42649475 113.66950849 79.29234889 112.27499834 78.16015625 110.87890625 C74.90567163 106.88208596 71.64147686 102.89327323 68.375 98.90625 C64.83919565 94.57954205 61.31890935 90.24026221 57.796875 85.90234375 C54.00582739 81.23439494 50.20204044 76.57711973 46.390625 71.92578125 C42.78384833 67.51160523 39.1929693 63.08452025 35.60351562 58.65625 C35.07951172 58.01042969 34.55550781 57.36460938 34.015625 56.69921875 C33.55446289 56.13033936 33.09330078 55.56145996 32.61816406 54.9753418 C30.4290026 52.30296621 28.2115586 49.65387032 26 47 C25.67 75.38 25.34 103.76 25 133 C16.75 133 8.5 133 0 133 C0 89.11 0 45.22 0 0 Z " fill="#0A5647" transform="translate(3570,1335)"/>
<path d="M0 0 C11.240625 -0.061875 22.48125 -0.12375 34.0625 -0.1875 C37.58043213 -0.21481201 41.09836426 -0.24212402 44.72290039 -0.27026367 C49.09851074 -0.28381348 49.09851074 -0.28381348 51.16233826 -0.28633118 C52.57004157 -0.29086627 53.97773503 -0.30126351 55.38536072 -0.31672668 C77.42209339 -0.54619743 97.3349635 4.62344766 113.75 20.1875 C126.82350384 33.87644695 131.46051918 50.7899893 131.203125 69.38671875 C130.25693783 86.21793291 124.80327262 101.33596663 112.82421875 113.53515625 C81.47746843 140.89310846 39.17315908 133 0 133 C0 89.11 0 45.22 0 0 Z M26 22 C26 51.37 26 80.74 26 111 C62.33805035 112.96176833 62.33805035 112.96176833 93.2734375 97.96875 C102.40406528 88.60052224 105.3125 77.11997051 105.3125 64.3684082 C105.07703406 52.52420371 101.08081247 42.70777206 93 34 C73.5886632 16.96750349 51.86391697 22 26 22 Z " fill="#0A5647" transform="translate(2573,1335)"/>
<path d="M0 0 C14.25541527 12.12783946 23.23841865 27.87260293 24.79785156 46.64355469 C25.95925447 66.60464498 21.31299534 84.49134088 8.015625 99.890625 C-5.53400531 114.16730864 -23.42006718 121.35688197 -42.90014648 121.89282227 C-63.99357149 122.07179678 -82.74433216 117.71669434 -98.25 102.62109375 C-99.30767578 101.53248047 -99.30767578 101.53248047 -100.38671875 100.421875 C-101.01964844 99.80957031 -101.65257813 99.19726562 -102.3046875 98.56640625 C-114.65517863 85.77969468 -118.74169624 67.68840558 -118.60546875 50.47265625 C-117.91714231 32.63209534 -110.71039651 15.33430232 -97.50390625 3.1015625 C-70.15657264 -18.59466158 -28.38020013 -22.54337526 0 0 Z M-77.28515625 18.4375 C-86.73397869 27.35943643 -92.21288599 38.02575165 -92.72314453 51.03100586 C-92.99230579 65.5333464 -88.50166408 76.89947661 -78.76171875 87.609375 C-69.02635418 96.93522136 -56.81262536 99.92732711 -43.72265625 99.66796875 C-34.00981661 98.95144779 -26.33275949 95.97126432 -18.38671875 90.421875 C-17.33484375 89.7 -16.28296875 88.978125 -15.19921875 88.234375 C-4.7483069 77.78346315 -1.08502388 65.76903189 -1.07202148 51.4375 C-1.28530002 38.8982367 -5.96984759 29.32395381 -14.453125 20.19921875 C-31.57712982 3.8104127 -59.11808614 3.415965 -77.28515625 18.4375 Z " fill="#0A5647" transform="translate(3482.38671875,1347.578125)"/>
<path d="M0 0 C12.40585722 10.16076738 19.34276027 25.54517335 21.71875 41.171875 C23.53437616 59.42900473 20.08079533 77.65383803 9.00390625 92.55859375 C-2.67095255 106.78234959 -17.63011012 116.2077353 -36 119 C-59.16808939 120.70215302 -79.62778519 118.06900292 -98.375 103.25 C-111.53808791 91.68190677 -119.56043678 76.01388669 -121.23193359 58.58105469 C-122.40794229 39.62394292 -118.74720788 21.83282021 -105.98925781 7.13256836 C-78.1987054 -23.44940333 -31.9642271 -24.70353573 0 0 Z M-82.5 17.8125 C-92.8874264 29.35655632 -95.80903014 41.27982337 -95.34375 56.43359375 C-95.01513081 62.17856137 -93.70037218 66.91176161 -91 72 C-90.51402344 72.93199219 -90.02804688 73.86398437 -89.52734375 74.82421875 C-83.15317342 85.86976686 -74.06136856 92.16079389 -62 96 C-48.63794285 98.75307477 -34.91386747 97.33544611 -23.37890625 89.78125 C-13.89527687 82.68020731 -6.6552122 73.25455085 -4.24609375 61.3828125 C-2.70533837 46.46438739 -4.65328085 33.87215386 -13.75 21.6484375 C-22.01405257 11.6849225 -32.5547864 6.52402238 -45.3125 5.1875 C-59.08050935 4.46875241 -72.29117176 8.20762915 -82.5 17.8125 Z " fill="#0A5647" transform="translate(2489,1350)"/>
<path d="M0 0 C84.59186242 0 84.59186242 0 100.32421875 15.05859375 C108.38962744 24.40243552 111.57184642 34.6483304 111.4375 46.8125 C111.42920166 47.78082764 111.42090332 48.74915527 111.41235352 49.74682617 C111.10957947 62.58724733 107.42302112 71.64415554 98.2734375 80.7109375 C95.30809637 83.37839048 92.1703812 85.58061303 88.77734375 87.671875 C88.06698975 88.11112305 87.35663574 88.55037109 86.62475586 89.00292969 C86.08858643 89.33196289 85.55241699 89.66099609 85 90 C85.70382813 90.99515625 86.40765625 91.9903125 87.1328125 93.015625 C93.57057261 102.1242885 99.98414514 111.24932355 106.36572266 120.39746094 C106.92694824 121.20086914 107.48817383 122.00427734 108.06640625 122.83203125 C108.56084229 123.54077393 109.05527832 124.2495166 109.56469727 124.97973633 C110.56777697 126.39162348 111.61117547 127.77533746 112.68334961 129.13549805 C114 131 114 131 114 133 C90.58451485 135.98648396 90.58451485 135.98648396 83.60742188 131.44140625 C78.21111963 125.76283589 74.92808905 118.34128531 71.77929688 111.25146484 C67.51068511 101.80883129 67.51068511 101.80883129 60 95 C49.23153191 91.90860632 36.77023468 93.54257691 26 94 C26 106.87 26 119.74 26 133 C17.42 133 8.84 133 0 133 C0 89.11 0 45.22 0 0 Z M26 22 C26 38.83 26 55.66 26 73 C34.600625 73.0928125 34.600625 73.0928125 43.375 73.1875 C46.05761963 73.22846802 46.05761963 73.22846802 48.79443359 73.27026367 C59.51493067 73.36572695 69.29185888 73.08802184 78 66 C83.49972391 60.50027609 85.56942857 54.81363265 86.4375 47.125 C86.11478011 40.40166901 83.89202888 33.26692045 78.9375 28.5625 C68.10825957 21.03052966 56.94755069 21.50574001 44.3125 21.75 C35.2478125 21.87375 35.2478125 21.87375 26 22 Z " fill="#0A5647" transform="translate(2202,1335)"/>
<path d="M0 0 C75.38461538 0 75.38461538 0 87.5 6.375 C89.15515625 7.22191406 89.15515625 7.22191406 90.84375 8.0859375 C100.95181646 14.21582929 107.23219398 22.90433116 110.33984375 34.3125 C112.79178178 48.00853255 111.66420259 61.82185645 104.25 73.875 C95.72149846 85.47970234 83.04005374 91.67393627 69 94 C59.62555571 95.23649695 50.24812669 95.11543808 40.8125 95.0625 C32.9853125 95.0315625 32.9853125 95.0315625 25 95 C25 107.54 25 120.08 25 133 C16.75 133 8.5 133 0 133 C0 89.11 0 45.22 0 0 Z M25 22 C25 38.83 25 55.66 25 73 C30.5275 73.061875 36.055 73.12375 41.75 73.1875 C43.46799805 73.21481201 45.18599609 73.24212402 46.95605469 73.27026367 C59.10748008 73.38372026 70.83117781 72.96949996 80 64 C85.06134127 58.40588596 86.23465049 50.92766027 85.8828125 43.5390625 C84.8577366 37.57688633 82.1609493 32.38173437 78 28 C72.46227859 24.33147793 66.65479356 21.86475716 59.96582031 21.88647461 C59.17449707 21.88659546 58.38317383 21.88671631 57.56787109 21.88684082 C56.74625488 21.89195679 55.92463867 21.89707275 55.078125 21.90234375 C53.9341626 21.90385437 53.9341626 21.90385437 52.76708984 21.90539551 C49.92804452 21.9106133 47.08902069 21.92457456 44.25 21.9375 C37.8975 21.958125 31.545 21.97875 25 22 Z " fill="#0A5647" transform="translate(2030,1335)"/>
<path d="M0 0 C8.58 0 17.16 0 26 0 C26.01458252 2.52253418 26.02916504 5.04506836 26.04418945 7.64404297 C26.09466996 16.0060666 26.16128846 24.36790664 26.23571491 32.72974968 C26.28032121 37.79637924 26.31959858 42.86293019 26.34643555 47.9296875 C26.37256596 52.82520843 26.41303658 57.72042528 26.46318626 62.61575699 C26.47978936 64.47748132 26.49134426 66.33925818 26.49761391 68.20104599 C26.48249662 86.8318321 26.48249662 86.8318321 35 103 C43.13618627 110.00054268 51.28306613 111.45187905 61.75390625 111.24609375 C69.88234361 110.62985843 77.4064056 108.15654716 83 102 C88.25246262 93.55486401 90.13233284 86.48129562 90.20532227 76.62963867 C90.21522186 75.79985504 90.22512146 74.97007141 90.23532104 74.11514282 C90.26681279 71.38278011 90.29164457 68.65040004 90.31640625 65.91796875 C90.33698643 64.01938942 90.35798318 62.12081457 90.37937927 60.22224426 C90.43449007 55.23283518 90.48394771 50.2433855 90.53222656 45.25390625 C90.58252197 40.15946859 90.63816602 35.06508966 90.69335938 29.97070312 C90.80080648 19.98051712 90.90178671 9.99028105 91 0 C99.25 0 107.5 0 116 0 C116.09079142 11.34508588 116.16399715 22.68992584 116.20724869 34.03529453 C116.22801947 39.30483691 116.2561425 44.57411533 116.30175781 49.84350586 C116.34559366 54.93991077 116.36921587 60.03606368 116.37950897 65.13264275 C116.38683322 67.06567279 116.40113327 68.99869088 116.42292023 70.93161201 C116.59229089 86.59781165 115.61328854 100.9036359 106 114 C105.23042969 115.05960938 105.23042969 115.05960938 104.4453125 116.140625 C96.21785812 126.45446733 83.85972163 132.12382749 71 134 C66.79341771 134.2355629 62.58757895 134.23087365 58.375 134.25 C56.70630859 134.2809375 56.70630859 134.2809375 55.00390625 134.3125 C39.90172105 134.38282449 26.088137 130.20931812 15 119.5625 C0.35349528 103.68429653 -0.3190365 84.10876317 -0.1953125 63.57421875 C-0.19157371 61.73191991 -0.18873084 59.88961906 -0.18673706 58.0473175 C-0.17916868 53.24205861 -0.15958009 48.43692421 -0.1373291 43.63171387 C-0.11672274 38.71087324 -0.10770399 33.79001213 -0.09765625 28.86914062 C-0.07632651 19.24603077 -0.04120133 9.62304531 0 0 Z " fill="#0A5647" transform="translate(2765,1335)"/>
<path d="M0 0 C-0.59570014 4.78766406 -2.01246238 8.9223063 -3.9375 13.3125 C-4.20240234 13.94478516 -4.46730469 14.57707031 -4.74023438 15.22851562 C-6.74647556 19.87323778 -6.74647556 19.87323778 -9 21 C-10.890625 20.14453125 -10.890625 20.14453125 -13.25 18.8125 C-27.46154306 11.40764665 -44.43876946 8.55393413 -60 13 C-64.02200606 14.81553486 -67.06977047 16.95349178 -70 20.25 C-71.6433363 24.76917482 -71.91182397 29.58033054 -70.19921875 34.125 C-65.29439796 41.79377518 -52.9243251 43.13000559 -44.71435547 45.28027344 C-39.62646664 46.62935567 -34.56212402 48.05770355 -29.5 49.5 C-28.50991943 49.77247559 -27.51983887 50.04495117 -26.49975586 50.32568359 C-15.49774256 53.47017232 -6.26795654 57.85405071 1.25 66.625 C6.43517572 76.62498175 6.97877903 86.83605537 4.34765625 97.69140625 C0.50236241 109.0146448 -7.630872 115.28845226 -17.88769531 120.48876953 C-37.43212047 129.67435604 -63.59118912 126.56893809 -83.44140625 119.83203125 C-89.85824334 117.35042592 -95.46368205 114.06835486 -101 110 C-98.4419073 103.02814901 -95.95851851 96.30430725 -92 90 C-88.0329744 91.4867146 -84.4151143 93.3688339 -80.6875 95.375 C-66.31347959 102.70513972 -49.10762329 106.05965438 -33.25 101.75 C-26.51798499 99.24844426 -26.51798499 99.24844426 -21.8671875 93.98828125 C-20.18371892 89.82205018 -19.83929504 87.61268767 -21 83.1875 C-27.35788385 73.05462262 -40.19971876 71.31668493 -51.09182739 68.73648071 C-83.641499 60.94826471 -83.641499 60.94826471 -92.609375 48.82421875 C-98.18550774 38.37851804 -99.5782993 29.00319012 -96.4375 17.4375 C-92.91842073 7.00287818 -86.53496672 0.3608012 -77 -5 C-73.40434744 -6.66513578 -69.81060842 -7.92132137 -66 -9 C-65.20722656 -9.22558594 -64.41445312 -9.45117188 -63.59765625 -9.68359375 C-43.40911045 -14.30814216 -17.44716455 -11.63144304 0 0 Z " fill="#0A5647" transform="translate(3849,1344)"/>
<path d="M0 0 C3.33926613 2.71854196 6.35965935 5.67763024 9.26953125 8.84765625 C4.44870419 14.81025814 -0.95541151 19.81445419 -6.73046875 24.84765625 C-9.55453509 23.56066273 -11.57216508 22.18780226 -13.79296875 20.03515625 C-23.35140645 11.78747477 -35.64841581 9.41362744 -48 10.00390625 C-60.29616032 11.67992286 -70.435022 16.56148769 -78.73046875 25.84765625 C-87.67200514 37.71929442 -89.0467984 50.40292075 -87.73046875 64.84765625 C-85.79773201 75.76336439 -79.78927323 85.15635958 -70.91796875 91.78515625 C-59.33892223 99.23648711 -45.84205062 101.76596778 -32.3125 99.19921875 C-22.41750964 96.43287736 -14.6285793 91.27897484 -6.73046875 84.84765625 C-1.39713542 90.18098958 3.93619792 95.51432292 9.26953125 100.84765625 C-0.01092673 113.67652463 -15.50922352 120.20029998 -30.73046875 122.84765625 C-53.51950248 124.34137738 -74.51960346 122.09880658 -92.58666992 107.0715332 C-105.25823157 95.81765471 -113.73161633 79.81291879 -114.86962891 62.76269531 C-115.71035355 43.14026506 -112.66107624 25.77683448 -99.29296875 10.47265625 C-97.78958722 8.91396637 -96.26983467 7.37081832 -94.73046875 5.84765625 C-93.84488281 4.91179687 -93.84488281 4.91179687 -92.94140625 3.95703125 C-69.21196775 -19.24973239 -25.75333558 -18.93015781 0 0 Z " fill="#0A5647" transform="translate(3057.73046875,1346.15234375)"/>
<path d="M0 0 C37.29 0 74.58 0 113 0 C113 7.26 113 14.52 113 22 C98.48 22 83.96 22 69 22 C69 58.63 69 95.26 69 133 C60.75 133 52.5 133 44 133 C44 96.37 44 59.74 44 22 C29.48 22 14.96 22 0 22 C0 14.74 0 7.48 0 0 Z " fill="#0A5647" transform="translate(3108,1335)"/>
<path d="M0 0 C8.25 0 16.5 0 25 0 C25 43.89 25 87.78 25 133 C16.75 133 8.5 133 0 133 C0 89.11 0 45.22 0 0 Z " fill="#0A5647" transform="translate(3276,1335)"/>
</svg>
